<svg xmlns="http://www.w3.org/2000/svg" width="134.502" height="47.128" viewBox="0 0 134.502 47.128">
    <defs>
        <filter id="Union_27" width="134.502" height="47.128" x="0" y="0" filterUnits="userSpaceOnUse">
            <feOffset dy="2"/>
            <feGaussianBlur result="blur" stdDeviation="5"/>
            <feFlood flood-opacity=".161"/>
            <feComposite in2="blur" operator="in"/>
            <feComposite in="SourceGraphic"/>
        </filter>
    </defs>
    <g id="Group_7025" data-name="Group 7025" filter="url(#Union_27)" transform="translate(-.002)">
        <path id="Union_27-2" fill="#fff" d="M2.578 16.181a5.3 5.3 0 0 1-2.441-2.544A1.556 1.556 0 0 1 0 13.059a1.2 1.2 0 0 1 .349-.844 1.6 1.6 0 0 1 .845-.442 1.134 1.134 0 0 1 .3-.028c.942 0 1.217.77 1.741 1.372a3.109 3.109 0 0 0 .987.721 4.82 4.82 0 0 0 2.2.5 4.246 4.246 0 0 0 2.355-.626 1.744 1.744 0 0 0 .864-1.546 2.131 2.131 0 0 0-.758-1.649 4.282 4.282 0 0 0-2.486-.885 7.624 7.624 0 0 1-4.252-1.575A4.289 4.289 0 0 1 .534 4.648a3.92 3.92 0 0 1 .844-2.511A5.086 5.086 0 0 1 3.618.561 8.669 8.669 0 0 1 6.7.036a6.24 6.24 0 0 1 3.2.77 6.529 6.529 0 0 1 2.2 2.168 1.8 1.8 0 0 1 .312.967 1.284 1.284 0 0 1-.6 1.093 1.52 1.52 0 0 1-2.057-.471A4.663 4.663 0 0 0 8.429 3.23a3.879 3.879 0 0 0-1.869-.405 4.322 4.322 0 0 0-2.286.528 1.48 1.48 0 0 0-.753 1.357 1.75 1.75 0 0 0 .7 1.421 5.572 5.572 0 0 0 2.836.832 6.947 6.947 0 0 1 4.071 1.586 4.583 4.583 0 0 1 1.5 3.556 4.413 4.413 0 0 1-.893 2.769 5.251 5.251 0 0 1-2.315 1.705 8.2 8.2 0 0 1-3 .549 7.942 7.942 0 0 1-3.842-.947zm16.752.4a1.468 1.468 0 0 1-.439-1.077V4.178h3.028V15.5a1.467 1.467 0 0 1-.438 1.077 1.49 1.49 0 0 1-1.078.438 1.463 1.463 0 0 1-1.073-.433zm83.056.271a2.459 2.459 0 0 1-.648-.414l-8.12-10.269.082 9.291a1.5 1.5 0 1 1-3.007 0V1.58A1.474 1.474 0 0 1 92.837.225a1.7 1.7 0 0 1 .5.38l8.163 10.848V1.58a1.485 1.485 0 0 1 .441-1.094 1.5 1.5 0 0 1 1.07-.422 1.438 1.438 0 0 1 1.064.43 1.463 1.463 0 0 1 .43 1.086v13.88a1.479 1.479 0 0 1-.43 1.09 1.45 1.45 0 0 1-1.064.426 1.7 1.7 0 0 1-.625-.123zm-45.408-.315a1.478 1.478 0 0 1-.437-1.077V1.58A1.483 1.483 0 0 1 58.055.064h9.271a1.49 1.49 0 0 1 1.069.4 1.434 1.434 0 0 1 .422 1.053 1.362 1.362 0 0 1-.417 1.026 1.525 1.525 0 0 1-1.069.385h-7.76V15.46a1.524 1.524 0 0 1-2.594 1.077zm-10.848-.008a1.466 1.466 0 0 1-.437-1.077V9.225l-5.4-6.817a1.656 1.656 0 0 1-.3-.9 1.393 1.393 0 0 1 .463-1.05A1.525 1.525 0 0 1 41.5.057a1.368 1.368 0 0 1 .79.225 2.158 2.158 0 0 1 .529.57l4.424 5.436 4.5-5.511a1.513 1.513 0 0 1 1.323-.72 1.273 1.273 0 0 1 .979.438 1.448 1.448 0 0 1 .374 1 1.675 1.675 0 0 1-.275.913L48.7 9.225v6.228a1.466 1.466 0 0 1-.437 1.077 1.492 1.492 0 0 1-1.074.438 1.466 1.466 0 0 1-1.059-.439zm-7.3.2a1.448 1.448 0 0 1-.577-.7L33.864 5.124l-2.318 5.657h3.388L36 13.44h-5.54l-1.06 2.592a1.574 1.574 0 0 1-.577.689 1.5 1.5 0 0 1-2.315-1.27 1.8 1.8 0 0 1 .132-.632l5.77-13.772a1.475 1.475 0 0 1 1.417-.99 1.443 1.443 0 0 1 1.426 1.008L41.03 14.85a1.763 1.763 0 0 1 .138.622 1.454 1.454 0 0 1-.442 1.058 1.487 1.487 0 0 1-1.072.438 1.537 1.537 0 0 1-.825-.242zm40.9.2h-.1a17.046 17.046 0 0 1-5.186-.777 6.256 6.256 0 0 1-2.589-2.2 5.793 5.793 0 0 1-.935-3.235V6.856a1.581 1.581 0 1 1 3.162 0c0 .447-.027.905-.062 1.394-.122 2.007-.253 4.08 1.684 5.1a8.971 8.971 0 0 0 7.981 0c1.941-1.023 1.811-3.1 1.688-5.1-.033-.488-.061-.946-.061-1.394a1.581 1.581 0 1 1 3.162 0v3.855a5.793 5.793 0 0 1-.935 3.235 6.238 6.238 0 0 1-2.589 2.2 17.012 17.012 0 0 1-5.162.777zM60.8 9.881V7.017h6.522a1.518 1.518 0 0 1 1.069.4 1.35 1.35 0 0 1 .426 1.032 1.351 1.351 0 0 1-.426 1.036 1.523 1.523 0 0 1-1.069.4zm24.245-8.235A1.651 1.651 0 1 1 86.7 3.3a1.649 1.649 0 0 1-1.655-1.654zm-14.122 0a1.649 1.649 0 1 1 1.65 1.654 1.65 1.65 0 0 1-1.65-1.654zm-49 1.278h-7.006a1.42 1.42 0 0 1-1.023-.409 1.4 1.4 0 0 1-.41-1.024A1.4 1.4 0 0 1 14.917.057h10.972a1.4 1.4 0 0 1 1.024.409 1.414 1.414 0 0 1 .409 1.024 1.4 1.4 0 0 1-.409 1.024 1.424 1.424 0 0 1-1.024.409z" data-name="Union 27" transform="translate(15 13)"/>
    </g>
</svg>
