<svg xmlns="http://www.w3.org/2000/svg" id="Group_7138" width="51.769" height="47.337" data-name="Group 7138" viewBox="0 0 51.769 47.337">
    <defs>
        <style>
            .cls-1{fill:#fff}
        </style>
    </defs>
    <g id="Group_3010" data-name="Group 3010">
        <circle id="Ellipse_71" cx="3.075" cy="3.075" r="3.075" class="cls-1" data-name="Ellipse 71" transform="translate(14.625)"/>
        <path id="Path_350" d="M159.6 168.865l-11.1-19.224a3.632 3.632 0 0 0-1.684-1.507l-.021-.009c-.094-.041-.189-.079-.286-.112l-.108-.034c-.07-.022-.141-.042-.213-.059-.053-.013-.105-.024-.158-.034s-.119-.022-.179-.031-.118-.016-.178-.022-.115-.01-.173-.012-.119 0-.178 0h-.178c-.06 0-.115.007-.173.012s-.118.013-.178.022-.12.019-.179.031-.105.021-.158.034c-.072.018-.143.038-.213.059l-.108.034c-.1.033-.192.071-.286.112l-.021.009a3.632 3.632 0 0 0-1.684 1.507l-11.1 19.224a3.661 3.661 0 0 0 6.341 3.661l7.938-13.749 7.938 13.749a3.661 3.661 0 0 0 6.341-3.661z" class="cls-1" data-name="Path 350" transform="translate(-130.552 -140.983)"/>
    </g>
    <g id="Group_3011" data-name="Group 3011" transform="translate(26.414)">
        <circle id="Ellipse_72" cx="3.075" cy="3.075" r="3.075" class="cls-1" data-name="Ellipse 72" transform="translate(10.447)"/>
        <path id="Path_351" d="M206.5 168.865l-11.1-19.224a3.63 3.63 0 0 0-1.684-1.507l-.021-.009c-.095-.041-.19-.079-.287-.112l-.108-.034c-.071-.022-.142-.042-.214-.059-.053-.013-.105-.024-.158-.034s-.119-.022-.179-.031-.119-.016-.178-.022-.115-.01-.173-.012-.118 0-.178 0h-.178c-.059 0-.115.007-.173.012s-.119.013-.178.022-.119.019-.179.031-.106.021-.158.034c-.072.018-.143.038-.214.059l-.108.034c-.1.033-.193.071-.287.112l-.021.009a3.632 3.632 0 0 0-1.684 1.507l-7.409 12.837s3.5 5.761 3.734 6.213a7.916 7.916 0 0 1 .458 1.15l6.4-11.067 7.939 13.751a3.661 3.661 0 0 0 6.341-3.661z" class="cls-1" data-name="Path 351" transform="translate(-181.636 -140.983)"/>
    </g>
    <path id="Path_352" d="M144.2 208.058a.885.885 0 0 0-.453.035.675.675 0 0 0-.347.252l-2.944 4.441-2.954-4.442a.67.67 0 0 0-.344-.25.814.814 0 0 0-.442-.037.741.741 0 0 0-.4.181.505.505 0 0 0-.175.377v8.214a.528.528 0 0 0 .23.426.846.846 0 0 0 .492.148h.291l.208-.154a.524.524 0 0 0 .223-.421v-5.89l2.231 3.349a.711.711 0 0 0 .639.305.726.726 0 0 0 .638-.3l2.222-3.348v5.888a.516.516 0 0 0 .236.423.8.8 0 0 0 .486.151.816.816 0 0 0 .5-.151.517.517 0 0 0 .236-.423v-8.214a.507.507 0 0 0-.176-.378.738.738 0 0 0-.397-.182z" class="cls-1" data-name="Path 352" transform="translate(-133.249 -170.068)"/>
    <path id="Path_353" d="M167.413 208.39l-.023-.047a.635.635 0 0 0-.165-.178.874.874 0 0 0-.981 0 .635.635 0 0 0-.165.178l-.023.038v.009c-.165.335-1.7 3.407-4.1 8.212a.49.49 0 0 0 .032.48.689.689 0 0 0 .411.275.776.776 0 0 0 .236.034.694.694 0 0 0 .676-.363l1.221-2.448h4.413l1.222 2.45a.694.694 0 0 0 .675.361.868.868 0 0 0 .241-.033.65.65 0 0 0 .412-.285.49.49 0 0 0 .024-.475c-2.571-5.134-3.95-7.893-4.106-8.208zm-2.307 5.034l1.633-3.273 1.633 3.273z" class="cls-1" data-name="Path 353" transform="translate(-145.692 -170.054)"/>
    <path id="Path_354" d="M194.111 208.03a.942.942 0 0 0-.534 0 .7.7 0 0 0-.394.307l-2.334 4.22-2.333-4.218a.659.659 0 0 0-.4-.311.894.894 0 0 0-.522 0 .707.707 0 0 0-.407.3.486.486 0 0 0 0 .473l2.942 5.305v2.693a.53.53 0 0 0 .23.426.842.842 0 0 0 .492.148.817.817 0 0 0 .5-.154.525.525 0 0 0 .223-.421v-2.693l2.942-5.305a.492.492 0 0 0-.006-.482.713.713 0 0 0-.399-.288z" class="cls-1" data-name="Path 354" transform="translate(-157.873 -170.043)"/>
    <path id="Path_355" d="M217.829 208.98a4.629 4.629 0 0 0-5.664 0 3.207 3.207 0 0 0-1.1 2.511v2.421a3.207 3.207 0 0 0 1.1 2.511 4.12 4.12 0 0 0 2.819.966h.026a4.124 4.124 0 0 0 2.819-.966 3.209 3.209 0 0 0 1.1-2.511v-2.421a3.209 3.209 0 0 0-1.1-2.511zm-.226 4.932a2.138 2.138 0 0 1-.7 1.689 2.75 2.75 0 0 1-1.921.639 2.722 2.722 0 0 1-1.895-.64 2.135 2.135 0 0 1-.7-1.688v-2.421a2.138 2.138 0 0 1 .7-1.69 3.167 3.167 0 0 1 3.816 0 2.137 2.137 0 0 1 .7 1.689z" class="cls-1" data-name="Path 355" transform="translate(-169.432 -170.053)"/>
</svg>
