<svg xmlns="http://www.w3.org/2000/svg" width="142.68" height="64.337" viewBox="0 0 142.68 64.337">
    <defs>
        <filter id="Union_28" width="142.68" height="64.337" x="0" y="0" filterUnits="userSpaceOnUse">
            <feOffset dy="2"/>
            <feGaussianBlur result="blur" stdDeviation="5"/>
            <feFlood flood-opacity=".161"/>
            <feComposite in2="blur" operator="in"/>
            <feComposite in="SourceGraphic"/>
        </filter>
    </defs>
    <g id="Group_6878" data-name="Group 6878" filter="url(#Union_28)" transform="translate(.001 -.003)">
        <path id="Union_28-2" fill="#fff" stroke="rgba(0,0,0,0)" stroke-miterlimit="10" d="M15.177 32.637q-.117-.308-.243-.595a7.034 7.034 0 0 1-5.242-.769 2.417 2.417 0 0 1-.325-.207H9.36l-.026-.02c-.983-.757-1.744-2.361-1.008-3.572l-.3-.06c-.555-.114-1.016-.31-.989-.937s.468-.891 1.027-.936c1.92-.15 3.837-.155 5.738-.464a1.968 1.968 0 0 0 .475-.109c-.29-.095-.377-.116-.7-.216-3.022-.945-6.071-1.647-8.577-3.378a11.342 11.342 0 0 1-.8-18.22A14.518 14.518 0 0 1 17.935.758c5.265 1.611 8 6.135 8 11.214 0 5.007-3.124 8.787-7.447 10.994a1.754 1.754 0 0 1-2.211-.32.962.962 0 0 1 .475-1.4c.079-.046.162-.088.242-.133 3.708-2.067 7.078-6.766 5.84-11.323a10.22 10.22 0 0 0-9.575-7.232 10.553 10.553 0 0 0-7.3 3.049 9.167 9.167 0 0 0-2.766 4.97 8.927 8.927 0 0 0 1.539 6.563c1.736 2.5 4.5 3.8 7.211 4.981 1.679.729 3.44 1.248 5.172 1.855.307.109.623.182.925.3a1.085 1.085 0 0 1 .814 1.091 1.051 1.051 0 0 1-.908 1.008c-.54.128-.843.166-1.582.328-.354.075-.464.087-1 .162a4 4 0 0 1 2.151 1c.611.648.988 1.717-.336 2.938-.087.082-.175.16-.265.234.165.391.29.725.4.98.354.849-.3 1.32-.985 1.32a1.176 1.176 0 0 1-1.152-.7zM13.671 30.2c.046-.009.118-.023.21-.044-1.261-1.8-2.664-2.45-3.164-1.976-1.07 1.022-.07 1.584.04 1.641a5.131 5.131 0 0 0 2.914.379zm89.529-7.313a4.363 4.363 0 0 1-1.468-.981 4.149 4.149 0 0 1-.913-1.479 5.37 5.37 0 0 1-.313-1.849 8.642 8.642 0 0 1 .442-2.814 6.474 6.474 0 0 1 1.26-2.229 5.764 5.764 0 0 1 2-1.465 6.384 6.384 0 0 1 2.656-.531 5.5 5.5 0 0 1 2.049.357 4.212 4.212 0 0 1 2.441 2.482 5.157 5.157 0 0 1 .324 1.822 8.077 8.077 0 0 1-.427 2.585A7.05 7.05 0 0 1 110 21.05a6.056 6.056 0 0 1-2.034 1.592 6.212 6.212 0 0 1-2.787.6 5.183 5.183 0 0 1-1.979-.355zm2.1-8.591a3.422 3.422 0 0 0-.933 1.063 5.411 5.411 0 0 0-.572 1.486 7.344 7.344 0 0 0-.2 1.665 3.044 3.044 0 0 0 .45 1.687 1.584 1.584 0 0 0 1.437.69 2.267 2.267 0 0 0 1.365-.416 3.339 3.339 0 0 0 .967-1.07 5.594 5.594 0 0 0 .574-1.469 6.631 6.631 0 0 0 .2-1.569 3.636 3.636 0 0 0-.116-.913 2.409 2.409 0 0 0-.355-.8 1.82 1.82 0 0 0-.619-.555 1.91 1.91 0 0 0-.908-.208 2.122 2.122 0 0 0-1.29.413zm-17.712 8.753a7.6 7.6 0 0 1-1.746-.543l.626-2.309a6.391 6.391 0 0 0 1.34.517 5.854 5.854 0 0 0 1.592.222 3.85 3.85 0 0 0 1.283-.2.745.745 0 0 0 .539-.751.842.842 0 0 0-.472-.762c-.317-.186-.683-.407-1.1-.669-.4-.248-.77-.493-1.108-.743a5.9 5.9 0 0 1-.876-.77 3.163 3.163 0 0 1-.576-.9 2.974 2.974 0 0 1-.208-1.166 3.125 3.125 0 0 1 1.072-2.55 4.767 4.767 0 0 1 3.108-.891 7.628 7.628 0 0 1 3.6.853l-.578 2.264a9.1 9.1 0 0 0-1.384-.566 4.981 4.981 0 0 0-1.479-.241 2.9 2.9 0 0 0-.958.14.606.606 0 0 0-.4.646.825.825 0 0 0 .381.66c.257.188.581.41.981.656.279.17.588.366.936.588a6.157 6.157 0 0 1 .97.774 4.158 4.158 0 0 1 .763 1 2.577 2.577 0 0 1 .313 1.26 3.278 3.278 0 0 1-.37 1.582 3.627 3.627 0 0 1-.991 1.154 4.23 4.23 0 0 1-1.479.7 6.91 6.91 0 0 1-1.826.23 10.268 10.268 0 0 1-1.953-.185zm-15.25 0a7.621 7.621 0 0 1-1.743-.543l.626-2.309a6.37 6.37 0 0 0 1.34.517 5.859 5.859 0 0 0 1.592.222 3.838 3.838 0 0 0 1.279-.2.743.743 0 0 0 .543-.751.848.848 0 0 0-.472-.762c-.316-.186-.683-.407-1.1-.669s-.77-.493-1.109-.743a5.891 5.891 0 0 1-.875-.77 3.084 3.084 0 0 1-.577-.9 2.993 2.993 0 0 1-.207-1.166 3.126 3.126 0 0 1 1.07-2.55 4.758 4.758 0 0 1 3.105-.891 7.63 7.63 0 0 1 3.6.853l-.577 2.264a9.073 9.073 0 0 0-1.385-.566 4.991 4.991 0 0 0-1.479-.241 2.91 2.91 0 0 0-.958.14.607.607 0 0 0-.4.646.826.826 0 0 0 .382.66c.252.188.581.41.98.656q.415.255.937.588a6.2 6.2 0 0 1 .97.774 4.256 4.256 0 0 1 .762 1 2.566 2.566 0 0 1 .313 1.26 3.246 3.246 0 0 1-.373 1.582 3.547 3.547 0 0 1-.992 1.154 4.2 4.2 0 0 1-1.475.7 6.917 6.917 0 0 1-1.822.23 10.348 10.348 0 0 1-1.955-.185zm-17.152-.14a2.594 2.594 0 0 1-.947-.909 4.1 4.1 0 0 1-.521-1.317 7.446 7.446 0 0 1-.162-1.568 9.745 9.745 0 0 1 .43-2.92 7.07 7.07 0 0 1 1.269-2.411 6.01 6.01 0 0 1 2.09-1.642 6.529 6.529 0 0 1 2.863-.6 11.429 11.429 0 0 1 2.411.264 11.031 11.031 0 0 1 2.2.728l-1.841 10.477h-2.955l.527-3.139a11.609 11.609 0 0 1-.7 1.2 6.583 6.583 0 0 1-.9 1.082 4.328 4.328 0 0 1-1.082.785 2.709 2.709 0 0 1-1.238.3 2.879 2.879 0 0 1-1.444-.33zm3.464-8.567a4.067 4.067 0 0 0-1.087 1.173 5.719 5.719 0 0 0-.683 1.646 7.909 7.909 0 0 0-.227 1.886 4.525 4.525 0 0 0 .045.634 2.3 2.3 0 0 0 .152.565 1.043 1.043 0 0 0 .286.412.694.694 0 0 0 .483.162 1.459 1.459 0 0 0 .969-.427 6.078 6.078 0 0 0 .947-1.079 10.305 10.305 0 0 0 .856-1.475c.26-.543.491-1.076.69-1.6l.37-2.116a3.758 3.758 0 0 0-1.34-.23 2.462 2.462 0 0 0-1.462.449zm-21.563 8.669l2.7-15.375h3.163L40.689 20.5h5.494l-.438 2.516zm-26.544-3.754a.691.691 0 0 1-.687-.693V14.42a3.336 3.336 0 0 1 6.668 0v4.144a.692.692 0 0 1-.69.693zM11.038 8a2.154 2.154 0 1 1 2.154 2.155A2.151 2.151 0 0 1 11.038 8z" data-name="Union 28" transform="translate(15.5 13.5)"/>
    </g>
</svg>
