<svg xmlns="http://www.w3.org/2000/svg" width="136.118" height="62.136" viewBox="0 0 136.118 62.136">
    <defs>
        <filter id="Union_29" width="136.118" height="62.136" x="0" y="0" filterUnits="userSpaceOnUse">
            <feOffset dy="2"/>
            <feGaussianBlur result="blur" stdDeviation="5"/>
            <feFlood flood-opacity=".204"/>
            <feComposite in2="blur" operator="in"/>
            <feComposite in="SourceGraphic"/>
        </filter>
    </defs>
    <g id="Group_6874" data-name="Group 6874" filter="url(#Union_29)" transform="translate(-.001 -.001)">
        <path id="Union_29-2" fill="#fff" d="M31.459 32.137a1.457 1.457 0 0 1-1.047-.4 1.422 1.422 0 0 1-.422-1.063l-.045-13.149a8.07 8.07 0 0 1 1.038-4.084 7.783 7.783 0 0 1 6.868-3.962 7.972 7.972 0 0 1 4.049 1.038 7.563 7.563 0 0 1 2.88 2.873 8.142 8.142 0 0 1 1.054 4.075 8.6 8.6 0 0 1-.953 4.085 7.289 7.289 0 0 1-2.645 2.88 7.2 7.2 0 0 1-9.332-1.553l.028 7.783a1.458 1.458 0 0 1-.4 1.069 1.443 1.443 0 0 1-1.066.407zm3.792-19.348a5.007 5.007 0 0 0-1.825 1.951 5.774 5.774 0 0 0-.653 2.77 5.681 5.681 0 0 0 .674 2.754 4.975 4.975 0 0 0 1.837 1.922 5.172 5.172 0 0 0 5.216-.016 5.083 5.083 0 0 0 1.837-1.938 5.54 5.54 0 0 0 .669-2.754 5.666 5.666 0 0 0-.685-2.766 5.1 5.1 0 0 0-1.854-1.943 4.973 4.973 0 0 0-2.6-.7h-.016a4.949 4.949 0 0 0-2.6.72zm-22.48 12.922A13.245 13.245 0 0 1 6.2 24.089a11.916 11.916 0 0 1-1.33-.86l10.1-10.03v12.354a14.615 14.615 0 0 1-2.137.158zm72.5-.3a7.527 7.527 0 0 1-3.3-2.867 7.751 7.751 0 0 1-1.258-4.227l-.05-14.346a1.312 1.312 0 0 1 .38-.937 1.333 1.333 0 0 1 1.874 0 1.3 1.3 0 0 1 .39.933l.049 14.346a5.135 5.135 0 0 0 .819 2.782 4.923 4.923 0 0 0 2.174 1.879 1.276 1.276 0 0 1 .7.758 1.346 1.346 0 0 1-1.233 1.81 1.292 1.292 0 0 1-.546-.131zm-9.868 0a7.52 7.52 0 0 1-3.3-2.867 7.682 7.682 0 0 1-1.253-4.227L70.8 3.971a1.286 1.286 0 0 1 .377-.937 1.337 1.337 0 0 1 1.877 0 1.309 1.309 0 0 1 .386.933l.049 14.346a5.16 5.16 0 0 0 .819 2.782 4.929 4.929 0 0 0 2.172 1.875 1.345 1.345 0 0 1-.532 2.567 1.291 1.291 0 0 1-.548-.126zm22.787.069a8.221 8.221 0 0 1-4.1-1.01 7.236 7.236 0 0 1-2.835-2.828 8.393 8.393 0 0 1-1.027-4.121 8.436 8.436 0 0 1 1-4.157 7.254 7.254 0 0 1 2.814-2.851 8.287 8.287 0 0 1 4.118-1.037 8.117 8.117 0 0 1 4.085 1.01 7.378 7.378 0 0 1 2.835 2.83 8.35 8.35 0 0 1 1.038 4.149 8.353 8.353 0 0 1-.994 4.129 7.267 7.267 0 0 1-2.8 2.848 8.157 8.157 0 0 1-4.105 1.039zm-2.659-12.708a4.9 4.9 0 0 0-1.825 1.939 6.2 6.2 0 0 0 .021 5.58 4.9 4.9 0 0 0 1.837 1.909 5.386 5.386 0 0 0 5.276-.018 4.787 4.787 0 0 0 1.813-1.926 5.818 5.818 0 0 0 .637-2.782 5.966 5.966 0 0 0-.656-2.794 4.754 4.754 0 0 0-1.822-1.928 5.116 5.116 0 0 0-2.624-.686h-.021a5.13 5.13 0 0 0-2.636.706zM58.006 25.48a8.232 8.232 0 0 1-4.1-1.01 7.262 7.262 0 0 1-2.835-2.828 8.307 8.307 0 0 1-1.022-4.121 8.361 8.361 0 0 1 .994-4.157 7.242 7.242 0 0 1 2.817-2.851 8.276 8.276 0 0 1 4.12-1.037 8.1 8.1 0 0 1 4.081 1.01 7.4 7.4 0 0 1 2.839 2.83 8.369 8.369 0 0 1 1.034 4.149 8.3 8.3 0 0 1-.994 4.129 7.26 7.26 0 0 1-2.8 2.848 8.143 8.143 0 0 1-4.1 1.039zm-2.657-12.708a4.86 4.86 0 0 0-1.821 1.939 6.181 6.181 0 0 0 .017 5.58 4.871 4.871 0 0 0 1.841 1.909 5.386 5.386 0 0 0 5.276-.018 4.809 4.809 0 0 0 1.809-1.926 5.841 5.841 0 0 0 .638-2.782 5.862 5.862 0 0 0-.657-2.794 4.751 4.751 0 0 0-1.821-1.928 5.106 5.106 0 0 0-2.624-.686h-.021a5.125 5.125 0 0 0-2.637.706zM17.94 9.629a1.488 1.488 0 0 0-2.535-1.059L2.733 21.155a12.066 12.066 0 0 1-1.091-1.613A13.423 13.423 0 0 1 0 12.923a13.515 13.515 0 0 1 1.6-6.677 11.619 11.619 0 0 1 4.525-4.579A13.227 13.227 0 0 1 12.744 0 13.044 13.044 0 0 1 19.3 1.623a11.881 11.881 0 0 1 4.561 4.547 13.386 13.386 0 0 1 1.663 6.668 13.407 13.407 0 0 1-1.6 6.628 11.644 11.644 0 0 1-4.5 4.578 11.959 11.959 0 0 1-1.484.722z" data-name="Union 29" transform="translate(15 13)"/>
    </g>
</svg>
